Genre:Comedy | Drama
Language:English
IMDb:http://www.imdb.com/title/tt0758752/
Source:720p.BluRay.x264-AVS720
Subtitles:Romana


Format : Matroska
File size : 2.03 GiB
Duration : 1h 52mn
Overall bit rate : 2 585 Kbps


Video
Format settings, CABAC : Yes
Format settings, ReFrames : 4 frames
Codec ID : V_MPEG4/ISO/AVC
Duration : 1h 52mn
Bit rate : 2 200 Kbps
Width : 1 280 pixels
Height : 688 pixels
Display aspect ratio : 1.860
Frame rate mode : Variable
Frame rate : 23.976 fps
Color space : YUV
Chroma subsampling : 4:2:0
Bit depth : 8 bits
Scan type : Progressive
Bits/(Pixel*Frame) : 0.104
Stream size : 1.69 GiB (83%)
Writing library : x264


Audio
ID : 2
Format : AC-3
Format/Info : Audio Coding 3
Mode extension : CM (complete main)
Codec ID : A_AC3
Duration : 1h 52mn
Bit rate mode : Constant
Bit rate : 384 Kbps
Channel(s) : 6 channels
Channel positions : Front: L C R, Side: L R, LFE
Sampling rate : 48.0 KHz
Bit depth : 16 bits
Video delay : -1mn 5s
Stream size : 309 MiB (15%)
Language : English



Plot:
Maggie (Hathaway) is an alluring free spirit who won't let anyone - or anything - tie her down. But she meets her match in Jamie (Gyllenhaal)
 
http://rapidhdd.com/images/956829vlcsnap-00001.png
 
http://www.rapidhdd.com/images/133501vlcsnap-00002.png
 
http://www.rapidhdd.com/images/524186vlcsnap-00003.png
 
http://www.rapidhdd.com/images/916926vlcsnap-00008.png
 
http://www.rapidhdd.com/images/433332vlcsnap-00007.png
 
http://www.rapidhdd.com/images/572770vlcsnap-00004.png
 
http://www.rapidhdd.com/images/658599vlcsnap-00006.png